<?xml version="1.0" encoding="utf-8"?>
<!-- Generator: Adobe Illustrator 15.1.0, SVG Export Plug-In . SVG Version: 6.00 Build 0)  -->
<!DOCTYPE svg PUBLIC "-//W3C//DTD SVG 1.1//EN" "http://www.w3.org/Graphics/SVG/1.1/DTD/svg11.dtd">
<svg version="1.1" id="Layer_1" xmlns="http://www.w3.org/2000/svg" xmlns:xlink="http://www.w3.org/1999/xlink" x="0px" y="0px"
	 width="535.328px" height="535.328px" viewBox="0 0 535.328 535.328" enable-background="new 0 0 535.328 535.328"
	 xml:space="preserve">
<path fill-rule="evenodd" clip-rule="evenodd" fill="#FFFFFF" d="M267.664,519.456c138.681,0,251.789-113.108,251.789-251.79
	S406.345,15.875,267.664,15.875c-138.68,0-251.789,113.109-251.789,251.791S128.984,519.456,267.664,519.456z"/>
<path fill-rule="evenodd" clip-rule="evenodd" fill="#454342" d="M272.889,141.031c18.263-9.127,40.417-14.105,60.688-15.861
	l22.783-1.983c24.953-2.147,49.925-0.831,74.906-0.831l13.703,0v13.699c0,60.829,0,121.673,0,182.512v6.992
	c0,62.801-51.354,114.154-114.177,114.154H100.659V122.356h13.692c25.012,0,49.89-1.641,74.896,0.297l22.778,1.724
	C233.662,126.002,253.472,131.25,272.889,141.031z"/>
<path fill-rule="evenodd" clip-rule="evenodd" fill="#5BB647" d="M114.351,136.055v156.345v26.167v6.992v100.465H214.8h15.788
	h100.205c55.266,0,100.474-45.22,100.474-100.465v-6.992c0-60.486,0-119.487,0-182.512c-24.011,0-49.37-0.588-73.721,0.788
	l-22.788,1.965c-22.299,2.712-44.856,7.916-61.948,17.779c-18.451-10.662-38.576-15.961-61.818-18.567l-22.781-1.729
	C163.365,135.133,137.894,136.055,114.351,136.055z"/>
<path fill-rule="evenodd" clip-rule="evenodd" fill="#87C359" d="M142.765,426.023H214.8h15.788h100.205
	c24.485,0,46.979-8.879,64.445-23.553c-20.403-47.416-67.548-80.603-122.435-80.603
	C209.206,321.868,156.029,366.417,142.765,426.023z"/>
<path fill-rule="evenodd" clip-rule="evenodd" fill="#439C43" d="M272.81,426.023l59.155-0.874c24.156,0,46.15-8.52,63.277-22.672
	c22.055-18.225,36.024-45.824,36.024-76.919v-6.992c0-60.486,0-119.487,0-182.512c-24.011,0-49.37-0.588-73.721,0.788l-22.788,1.965
	c-22.299,2.712-44.856,7.916-61.948,17.779V426.023z"/>
<path fill-rule="evenodd" clip-rule="evenodd" fill="#5BB647" d="M272.81,426.023h58.352c24.485,0,46.616-8.872,64.081-23.546
	c-20.176-46.884-68.331-79.859-122.433-80.585V426.023z"/>
<path fill-rule="evenodd" clip-rule="evenodd" fill="#454342" d="M357.547,127.352c-4.354-42.77-40.497-76.093-84.378-76.093
	c-43.863,0-79.987,33.037-84.959,75.56l22.781,1.737c4.026-30.71,30.203-54.455,62.09-54.455c31.874,0,58.278,24.148,61.677,55.213
	L357.547,127.352z"/>
<path fill-rule="evenodd" clip-rule="evenodd" fill="#454342" d="M309.867,335.239c-9.927,10.496-19.843,21-29.765,31.514
	l-7.299,7.735l-7.29-7.735c-9.924-10.495-19.84-21.018-29.762-31.514l-5.14-5.456l3.753-6.478
	c7.961-13.726,22.849-21.109,38.438-21.109c15.605,0,30.479,7.384,38.444,21.109l3.76,6.478L309.867,335.239z"/>
<path fill-rule="evenodd" clip-rule="evenodd" fill="#FEF8B3" d="M302.559,328.353c-9.902,10.507-19.84,21-29.755,31.512
	c-9.916-10.512-19.839-21.005-29.761-31.512c6.267-10.803,18.029-16.14,29.761-16.121
	C284.538,312.213,296.299,317.551,302.559,328.353z"/>
<path fill-rule="evenodd" clip-rule="evenodd" fill="#FCD061" d="M302.559,328.353c-9.902,10.507-19.84,21-29.755,31.512v-47.633
	C284.538,312.213,296.299,317.551,302.559,328.353z"/>
<path fill-rule="evenodd" clip-rule="evenodd" fill="#454342" d="M198.443,175.576c44.453,0,80.504,36.074,80.504,80.504
	c0.001,44.451-36.052,80.508-80.504,80.508c-44.457,0-80.492-36.057-80.492-80.508C117.952,211.649,153.986,175.576,198.443,175.576
	z"/>
<path fill-rule="evenodd" clip-rule="evenodd" fill="#EEEEEE" d="M198.443,189.272c36.896,0,66.813,29.922,66.813,66.808
	c0,36.889-29.918,66.81-66.813,66.81c-36.906,0-66.808-29.921-66.808-66.81C131.636,219.195,161.538,189.272,198.443,189.272z"/>
<path fill-rule="evenodd" clip-rule="evenodd" fill="#FFFFFF" d="M198.443,189.272c30.448,0,56.145,20.386,64.195,48.243
	c-8.05,27.849-33.747,48.233-64.195,48.233c-30.46,0-56.131-20.384-64.18-48.233C142.313,209.658,167.983,189.272,198.443,189.272z"
	/>
<path fill-rule="evenodd" clip-rule="evenodd" fill="#454342" d="M347.169,175.576c44.463,0,80.496,36.074,80.496,80.504
	c0.001,44.451-36.033,80.508-80.497,80.508c-44.453,0-80.506-36.039-80.506-80.508C266.662,211.649,302.715,175.576,347.169,175.576
	z"/>
<path fill-rule="evenodd" clip-rule="evenodd" fill="#EEEEEE" d="M347.169,189.272c36.894,0,66.813,29.922,66.813,66.808
	c0.001,36.889-29.919,66.81-66.813,66.81c-36.893,0-66.803-29.921-66.803-66.81C280.365,219.195,310.275,189.272,347.169,189.272z"
	/>
<path fill-rule="evenodd" clip-rule="evenodd" fill="#FFFFFF" d="M347.169,189.272c30.442,0,56.144,20.386,64.179,48.243
	c-8.035,27.849-33.736,48.233-64.18,48.233c-30.456,0-56.145-20.384-64.196-48.233C291.023,209.658,316.712,189.272,347.169,189.272
	z"/>
<path fill-rule="evenodd" clip-rule="evenodd" fill="#454342" d="M206.84,214.535c23.828,0,43.157,19.318,43.157,43.121
	c0,23.842-19.329,43.158-43.157,43.158c-23.842,0-43.153-19.316-43.153-43.158c0-7.941,2.161-15.38,5.911-21.777
	c3.082,7.618,10.534,12.964,19.27,12.964c11.472,0,20.788-9.283,20.788-20.763c0-5.166-1.886-9.88-4.988-13.5
	C205.383,214.535,206.119,214.535,206.84,214.535z"/>
<path fill-rule="evenodd" clip-rule="evenodd" fill="#454342" d="M338.758,214.535c23.849,0,43.166,19.318,43.166,43.121
	c0,23.842-19.317,43.158-43.166,43.158c-23.818,0-43.136-19.316-43.136-43.158c0-7.941,2.149-15.38,5.892-21.777
	c3.095,7.618,10.561,12.964,19.287,12.964c11.475,0,20.775-9.283,20.775-20.763c0.001-5.166-1.865-9.88-4.979-13.5
	C337.324,214.535,338.036,214.535,338.758,214.535z"/>
<path fill-rule="evenodd" clip-rule="evenodd" fill="#454342" d="M267.664,7.265c71.907,0,137.007,29.146,184.13,76.27
	s76.27,112.223,76.27,184.129c0,71.907-29.146,137.007-76.27,184.13s-112.223,76.269-184.13,76.269
	c-71.907,0-137.006-29.146-184.129-76.269C36.412,404.671,7.266,339.57,7.266,267.664c0-71.907,29.146-137.007,76.269-184.129
	C130.658,36.412,195.757,7.265,267.664,7.265L267.664,7.265z M439.619,95.71c-44.007-44.006-104.802-71.224-171.955-71.224
	c-67.152,0-127.948,27.218-171.954,71.224S24.486,200.511,24.486,267.664c0,67.152,27.218,127.948,71.224,171.954
	s104.802,71.225,171.954,71.225c67.153,0,127.949-27.219,171.955-71.225s71.224-104.801,71.224-171.954
	C510.843,200.511,483.625,139.716,439.619,95.71z"/>
</svg>
